<svg xmlns="http://www.w3.org/2000/svg" width="1200" height="780" viewBox="0 0 1200 780">
  <defs><style>text{font-family:-apple-system,BlinkMacSystemFont,"PingFang SC","Microsoft YaHei",sans-serif;fill:#252633}.h{font-size:31px;font-weight:700}.t{font-size:21px;font-weight:700}.b{font-size:16px}.s{font-size:14px;fill:#686a77}.a{stroke:#655bd1;stroke-width:4;fill:none;marker-end:url(#m)}</style><marker id="m" markerWidth="12" markerHeight="12" refX="10" refY="6" orient="auto"><path d="M0 0L12 6L0 12z" fill="#655bd1"/></marker></defs>
  <rect width="1200" height="780" rx="28" fill="#faf9ff"/><text x="55" y="62" class="h">AntFlux Forecaster：从技术需求到通用时序能力</text>
  <text x="170" y="112" text-anchor="middle" class="t">技术需求</text><text x="575" y="112" text-anchor="middle" class="t">核心能力</text><text x="1010" y="112" text-anchor="middle" class="t">模型工具箱</text>
  <g class="b">
    <g transform="translate(45 145)"><rect width="290" height="78" rx="14" fill="#efedff"/><text x="145" y="32" text-anchor="middle">大规模建模与运维</text><text x="145" y="58" text-anchor="middle" class="s">性能、效率与资源调度</text></g>
    <g transform="translate(45 240)"><rect width="290" height="78" rx="14" fill="#efedff"/><text x="145" y="32" text-anchor="middle">少样本与新序列</text><text x="145" y="58" text-anchor="middle" class="s">数据不足下稳定预测</text></g>
    <g transform="translate(45 335)"><rect width="290" height="78" rx="14" fill="#efedff"/><text x="145" y="32" text-anchor="middle">协变量与外生因子</text><text x="145" y="58" text-anchor="middle" class="s">市场和公域环境变化</text></g>
    <g transform="translate(45 430)"><rect width="290" height="78" rx="14" fill="#efedff"/><text x="145" y="32" text-anchor="middle">低信噪比与复杂规律</text><text x="145" y="58" text-anchor="middle" class="s">刻画预测不确定性</text></g>
    <g transform="translate(45 525)"><rect width="290" height="78" rx="14" fill="#efedff"/><text x="145" y="32" text-anchor="middle">层次、图与异步事件</text><text x="145" y="58" text-anchor="middle" class="s">结构化和连续时间建模</text></g>
  </g>
  <g class="b">
    <g transform="translate(420 155)"><rect width="310" height="72" rx="14" fill="#eaf8f2"/><text x="155" y="43" text-anchor="middle">大规模联合建模</text></g>
    <g transform="translate(420 250)"><rect width="310" height="72" rx="14" fill="#eaf8f2"/><text x="155" y="43" text-anchor="middle">多元混合复杂时序</text></g>
    <g transform="translate(420 345)"><rect width="310" height="72" rx="14" fill="#eaf8f2"/><text x="155" y="43" text-anchor="middle">概率预测</text></g>
    <g transform="translate(420 440)"><rect width="310" height="72" rx="14" fill="#eaf8f2"/><text x="155" y="43" text-anchor="middle">层次化 / 图时序建模</text></g>
    <g transform="translate(420 535)"><rect width="310" height="72" rx="14" fill="#fff1d7"/><text x="155" y="43" text-anchor="middle">异步事件序列建模</text></g>
  </g>
  <path d="M340 380H405" class="a"/><path d="M740 380H805" class="a"/>
  <g transform="translate(820 145)" class="b">
    <rect width="335" height="500" rx="18" fill="#fff1e9" stroke="#f0b18e"/>
    <g fill="white"><rect x="25" y="25" width="132" height="48" rx="10"/><rect x="178" y="25" width="132" height="48" rx="10"/><rect x="25" y="88" width="132" height="48" rx="10"/><rect x="178" y="88" width="132" height="48" rx="10"/><rect x="25" y="151" width="132" height="48" rx="10"/><rect x="178" y="151" width="132" height="48" rx="10"/><rect x="25" y="214" width="132" height="48" rx="10"/><rect x="178" y="214" width="132" height="48" rx="10"/><rect x="25" y="277" width="132" height="48" rx="10"/><rect x="178" y="277" width="132" height="48" rx="10"/><rect x="25" y="340" width="132" height="48" rx="10"/><rect x="178" y="340" width="132" height="48" rx="10"/><rect x="25" y="403" width="132" height="48" rx="10"/><rect x="178" y="403" width="132" height="48" rx="10"/></g>
    <g text-anchor="middle"><text x="91" y="56">APTN</text><text x="244" y="56">DeepAR</text><text x="91" y="119">N-BEATS</text><text x="244" y="119">Neural Process</text><text x="91" y="182">LightGBM</text><text x="244" y="182">BiDA</text><text x="91" y="245">LSTNet</text><text x="244" y="245">DeepVAR</text><text x="91" y="308">TCN</text><text x="244" y="308">DeepState</text><text x="91" y="371">DeepNKF</text><text x="244" y="371">Prophet</text><text x="91" y="434">HTS</text><text x="244" y="434">GCRNN / MoE</text></g>
  </g>
  <rect x="155" y="690" width="890" height="48" rx="14" fill="#655bd1"/><text x="600" y="721" text-anchor="middle" fill="white" class="b">配置式一站训练：特征解析、GPU 分配、模型调用、评估与标准化</text>
</svg>
