<svg xmlns="http://www.w3.org/2000/svg" width="1200" height="680" viewBox="0 0 1200 680">
  <defs><style>text{font-family:-apple-system,BlinkMacSystemFont,"PingFang SC","Microsoft YaHei",sans-serif;fill:#252633}.h{font-size:31px;font-weight:700}.t{font-size:21px;font-weight:700}.b{font-size:17px}.s{font-size:15px;fill:#696b78}.a{stroke:#655bd1;stroke-width:4;fill:none;marker-end:url(#m)}</style><marker id="m" markerWidth="12" markerHeight="12" refX="10" refY="6" orient="auto"><path d="M0 0L12 6L0 12z" fill="#655bd1"/></marker></defs>
  <rect width="1200" height="680" rx="28" fill="#faf9ff"/><text x="55" y="62" class="h">分组协同进化：把相关决策变量放入同一子组件</text>
  <text x="600" y="112" text-anchor="middle" class="t">D 维决策变量向量</text>
  <g transform="translate(115 135)">
    <rect width="970" height="70" rx="14" fill="white" stroke="#aba6cf"/>
    <g fill="#efedff" stroke="#655bd1"><rect x="18" y="15" width="58" height="40"/><rect x="84" y="15" width="58" height="40"/><rect x="150" y="15" width="58" height="40"/><rect x="216" y="15" width="58" height="40"/><rect x="282" y="15" width="58" height="40"/><rect x="630" y="15" width="58" height="40"/><rect x="696" y="15" width="58" height="40"/><rect x="762" y="15" width="58" height="40"/><rect x="828" y="15" width="58" height="40"/><rect x="894" y="15" width="58" height="40"/></g><text x="485" y="45" text-anchor="middle" class="t">…</text>
  </g>
  <path d="M300 215V280" class="a"/><path d="M600 215V280" class="a"/><path d="M900 215V280" class="a"/>
  <g transform="translate(145 290)"><rect width="310" height="90" rx="16" fill="#efedff" stroke="#c7c1ff"/><text x="155" y="36" text-anchor="middle" class="t">子组件 1</text><text x="155" y="68" text-anchor="middle" class="s">相互关联的 m 个变量</text></g>
  <g transform="translate(445 290)"><rect width="310" height="90" rx="16" fill="#eaf8f2" stroke="#9bd8c1"/><text x="155" y="36" text-anchor="middle" class="t">子组件 2</text><text x="155" y="68" text-anchor="middle" class="s">先验知识辅助分组</text></g>
  <g transform="translate(745 290)"><rect width="310" height="90" rx="16" fill="#fff1e9" stroke="#f0b18e"/><text x="155" y="36" text-anchor="middle" class="t">子组件 S</text><text x="155" y="68" text-anchor="middle" class="s">降低搜索空间</text></g>
  <path d="M300 390V455" class="a"/><path d="M600 390V455" class="a"/><path d="M900 390V455" class="a"/>
  <g transform="translate(145 465)"><rect width="310" height="105" rx="16" fill="#262835"/><text x="155" y="39" text-anchor="middle" fill="white" class="t">Species 1</text><text x="155" y="71" text-anchor="middle" fill="white" class="s">独立种群并行进化</text></g>
  <g transform="translate(445 465)"><rect width="310" height="105" rx="16" fill="#262835"/><text x="155" y="39" text-anchor="middle" fill="white" class="t">Species 2</text><text x="155" y="71" text-anchor="middle" fill="white" class="s">协同评估与更新</text></g>
  <g transform="translate(745 465)"><rect width="310" height="105" rx="16" fill="#262835"/><text x="155" y="39" text-anchor="middle" fill="white" class="t">Species S</text><text x="155" y="71" text-anchor="middle" fill="white" class="s">全局搜索、易并行化</text></g>
  <rect x="180" y="610" width="840" height="44" rx="12" fill="#655bd1"/><text x="600" y="639" text-anchor="middle" fill="white" class="b">单元属性与历史投放数据作为先验，加快收敛并减少搜索空间</text>
</svg>
