<svg xmlns="http://www.w3.org/2000/svg" width="1200" height="650" viewBox="0 0 1200 650">
  <defs><style>text{font-family:-apple-system,BlinkMacSystemFont,"PingFang SC","Microsoft YaHei",sans-serif;fill:#252633}.h{font-size:31px;font-weight:700}.t{font-size:21px;font-weight:700}.b{font-size:17px}.s{font-size:15px;fill:#686a77}.a{stroke:#655bd1;stroke-width:5;fill:none;marker-end:url(#m)}</style><marker id="m" markerWidth="12" markerHeight="12" refX="10" refY="6" orient="auto"><path d="M0 0L12 6L0 12z" fill="#655bd1"/></marker></defs>
  <rect width="1200" height="650" rx="28" fill="#faf9ff"/><text x="55" y="62" class="h">运筹产品：把算法能力沉淀为系统化生产流程</text>
  <text x="75" y="160" class="t">应用流程</text>
  <g transform="translate(235 115)"><rect width="240" height="105" rx="18" fill="#efedff"/><text x="120" y="45" text-anchor="middle" class="t">离线运筹调度</text><text x="120" y="76" text-anchor="middle" class="s">目标、约束、全局求解</text><path d="M250 52H330" class="a"/><rect x="340" width="240" height="105" rx="18" fill="#eaf8f2"/><text x="460" y="45" text-anchor="middle" class="t">近线博弈调度</text><text x="460" y="76" text-anchor="middle" class="s">小时级动态优化</text><path d="M590 52H670" class="a"/><rect x="680" width="240" height="105" rx="18" fill="#fff1e9"/><text x="800" y="45" text-anchor="middle" class="t">实时调控调度</text><text x="800" y="76" text-anchor="middle" class="s">PID / 模糊控制</text></g>
  <text x="75" y="330" class="t">决策交互</text><g transform="translate(235 270)"><rect width="300" height="110" rx="18" fill="#262835"/><text x="150" y="45" text-anchor="middle" fill="white" class="t">人机交互接口</text><text x="150" y="77" text-anchor="middle" fill="white" class="s">实验、约束、目标与调度</text><rect x="380" width="300" height="110" rx="18" fill="#262835"/><text x="530" y="45" text-anchor="middle" fill="white" class="t">过程质量展示</text><text x="530" y="77" text-anchor="middle" fill="white" class="s">曲线、指标与异常预警</text></g>
  <text x="75" y="500" class="t">能力沉淀</text><g transform="translate(235 440)"><rect width="300" height="110" rx="18" fill="#655bd1"/><text x="150" y="45" text-anchor="middle" fill="white" class="t">策略标准化</text><text x="150" y="77" text-anchor="middle" fill="white" class="s">跨业务复用与版本治理</text><rect x="380" width="300" height="110" rx="18" fill="#655bd1"/><text x="530" y="45" text-anchor="middle" fill="white" class="t">资源与实验支持</text><text x="530" y="77" text-anchor="middle" fill="white" class="s">计算资源、预算制实验</text></g>
  <rect x="970" y="120" width="170" height="430" rx="22" fill="#f3f1ff" stroke="#c7c1ff"/><text x="1055" y="170" text-anchor="middle" class="t">统一底座</text><text x="1055" y="225" text-anchor="middle" class="b">资源支持</text><text x="1055" y="270" text-anchor="middle" class="b">调度支持</text><text x="1055" y="315" text-anchor="middle" class="b">运筹求解</text><text x="1055" y="360" text-anchor="middle" class="b">决策交互</text><text x="1055" y="405" text-anchor="middle" class="b">过程展示</text><text x="1055" y="450" text-anchor="middle" class="b">异常预警</text><text x="1055" y="495" text-anchor="middle" class="b">实验支持</text>
</svg>
