<svg xmlns="http://www.w3.org/2000/svg" width="1200" height="780" viewBox="0 0 1200 780">
  <defs><style>text{font-family:-apple-system,BlinkMacSystemFont,"PingFang SC","Microsoft YaHei",sans-serif;fill:#252633}.h{font-size:31px;font-weight:700}.t{font-size:22px;font-weight:700}.b{font-size:17px}.s{font-size:15px;fill:#696b78}.a{stroke:#655bd1;stroke-width:5;fill:none;marker-end:url(#m)}</style><marker id="m" markerWidth="12" markerHeight="12" refX="10" refY="6" orient="auto"><path d="M0 0L12 6L0 12z" fill="#655bd1"/></marker></defs>
  <rect width="1200" height="780" rx="28" fill="#faf9ff"/><text x="55" y="62" class="h">约束下最优预算分配：平台模板、垂类演化与阶段分解</text>
  <g transform="translate(45 115)">
    <rect width="330" height="495" rx="20" fill="#efedff" stroke="#c7c1ff"/><text x="165" y="45" text-anchor="middle" class="t">平台模板</text>
    <rect x="24" y="72" width="282" height="182" rx="14" fill="white"/><text x="45" y="105" class="b">STEP 1：求解决策变量</text><text x="45" y="138" class="s">效用最大化</text><text x="45" y="168" class="s">预算约束 / 业务线约束</text><text x="45" y="198" class="s">计划约束 / 单元曝光上限</text><text x="45" y="228" class="s">变量范围 0 ≤ Xᵢ ≤ 1</text>
    <rect x="24" y="280" width="282" height="105" rx="14" fill="white"/><text x="45" y="315" class="b">STEP 2：映射为截断分</text><text x="45" y="350" class="s">scoreᵢ = mapping(Xᵢ)</text>
    <rect x="24" y="415" width="126" height="54" rx="12" fill="#655bd1"/><text x="87" y="448" text-anchor="middle" fill="white" class="b">精细化</text><rect x="164" y="415" width="142" height="54" rx="12" fill="#655bd1"/><text x="235" y="448" text-anchor="middle" fill="white" class="b">博弈刻画</text>
  </g>
  <path d="M385 365H430" class="a"/>
  <g transform="translate(440 115)">
    <rect width="330" height="495" rx="20" fill="#eaf8f2" stroke="#9bd8c1"/><text x="165" y="45" text-anchor="middle" class="t">垂类演化</text>
    <g class="b"><rect x="22" y="72" width="286" height="58" rx="12" fill="white"/><text x="42" y="108">保险：多目标、大规模进化</text><rect x="22" y="144" width="286" height="58" rx="12" fill="white"/><text x="42" y="180">芝麻：Budget Pacing 实时矫正</text><rect x="22" y="216" width="286" height="58" rx="12" fill="white"/><text x="42" y="252">花呗：预算增量、柔性约束</text><rect x="22" y="288" width="286" height="58" rx="12" fill="white"/><text x="42" y="324">财富：大促与日常调控</text><rect x="22" y="360" width="286" height="58" rx="12" fill="white"/><text x="42" y="396">借呗：专项人群快速定向</text><rect x="22" y="432" width="286" height="42" rx="12" fill="white"/><text x="42" y="460">网商：数据 BLOCK 协作探索</text></g>
  </g>
  <path d="M780 365H825" class="a"/>
  <g transform="translate(835 115)">
    <rect width="320" height="495" rx="20" fill="#fff1e9" stroke="#f0b18e"/><text x="160" y="45" text-anchor="middle" class="t">阶段分解</text>
    <rect x="25" y="78" width="270" height="60" rx="12" fill="white"/><text x="160" y="115" text-anchor="middle" class="b">天级时序预测结果</text>
    <rect x="25" y="168" width="270" height="112" rx="12" fill="white"/><text x="160" y="205" text-anchor="middle" class="t">离线运筹</text><text x="160" y="238" text-anchor="middle" class="s">天调度、粗粒度、可解释</text>
    <path d="M160 290V330" class="a"/>
    <rect x="25" y="340" width="270" height="60" rx="12" fill="white"/><text x="160" y="377" text-anchor="middle" class="b">小时级时序预测结果</text>
    <rect x="25" y="420" width="270" height="55" rx="12" fill="white"/><text x="160" y="454" text-anchor="middle" class="b">近线博弈：实时变量矫正</text>
  </g>
  <rect x="135" y="665" width="930" height="64" rx="18" fill="#655bd1"/><text x="600" y="704" text-anchor="middle" fill="white" class="t">人机协同：前端暴露目标、保量与预算约束，支持交互决策</text>
</svg>
