<svg xmlns="http://www.w3.org/2000/svg" width="1200" height="720" viewBox="0 0 1200 720">
  <defs><style>text{font-family:-apple-system,BlinkMacSystemFont,"PingFang SC","Microsoft YaHei",sans-serif;fill:#252633}.h{font-size:31px;font-weight:700}.t{font-size:21px;font-weight:700}.b{font-size:17px}.s{font-size:15px;fill:#686a77}.a{stroke:#655bd1;stroke-width:5;fill:none;marker-end:url(#m)}</style><marker id="m" markerWidth="12" markerHeight="12" refX="10" refY="6" orient="auto"><path d="M0 0L12 6L0 12z" fill="#655bd1"/></marker></defs>
  <rect width="1200" height="720" rx="28" fill="#faf9ff"/><text x="55" y="62" class="h">技术规划：自动化运筹框架与下一阶段能力边界</text>
  <rect x="160" y="100" width="880" height="78" rx="18" fill="#655bd1"/><text x="600" y="133" text-anchor="middle" fill="white" class="t">自动化运筹框架</text><text x="600" y="160" text-anchor="middle" fill="white" class="b">实验 · 拆解 · 调度 · 交互</text>
  <path d="M600 185V225" class="a"/>
  <g transform="translate(55 240)"><rect width="335" height="210" rx="20" fill="#efedff" stroke="#c7c1ff"/><text x="167" y="42" text-anchor="middle" class="t">决策场景时序预测</text><rect x="30" y="75" width="275" height="48" rx="12" fill="white"/><text x="167" y="106" text-anchor="middle" class="b">模型精度</text><rect x="30" y="140" width="275" height="48" rx="12" fill="white"/><text x="167" y="171" text-anchor="middle" class="b">可解释、可调整</text></g>
  <g transform="translate(432 240)"><rect width="335" height="210" rx="20" fill="#eaf8f2" stroke="#9bd8c1"/><text x="167" y="42" text-anchor="middle" class="t">大规模优化算法</text><rect x="30" y="75" width="275" height="48" rx="12" fill="white"/><text x="167" y="106" text-anchor="middle" class="b">辅助运筹</text><rect x="30" y="140" width="275" height="48" rx="12" fill="white"/><text x="167" y="171" text-anchor="middle" class="b">在线运筹</text></g>
  <g transform="translate(810 240)"><rect width="335" height="210" rx="20" fill="#fff1e9" stroke="#f0b18e"/><text x="167" y="42" text-anchor="middle" class="t">心智地图</text><rect x="30" y="75" width="275" height="48" rx="12" fill="white"/><text x="167" y="106" text-anchor="middle" class="b">心智与目标匹配</text><rect x="30" y="140" width="275" height="48" rx="12" fill="white"/><text x="167" y="171" text-anchor="middle" class="b">心智与供给匹配</text></g>
  <g transform="translate(160 530)"><rect width="380" height="110" rx="18" fill="#262835"/><text x="190" y="43" text-anchor="middle" fill="white" class="t">补足人、货理解</text><text x="190" y="76" text-anchor="middle" fill="white" class="b">构建用户金融实体画像</text><rect x="500" width="380" height="110" rx="18" fill="#262835"/><text x="690" y="43" text-anchor="middle" fill="white" class="t">提升协同程度</text><text x="690" y="76" text-anchor="middle" fill="white" class="b">全局协同，拓宽决策边界</text></g>
  <path d="M350 460V520" class="a"/><path d="M850 460V520" class="a"/>
</svg>
