<svg xmlns="http://www.w3.org/2000/svg" width="1200" height="620" viewBox="0 0 1200 620">
  <defs>
    <style>text{font-family:-apple-system,BlinkMacSystemFont,"PingFang SC","Microsoft YaHei",sans-serif;fill:#252633}.h{font-size:32px;font-weight:700}.t{font-size:22px;font-weight:700}.b{font-size:18px}.s{font-size:16px;fill:#696b78}.a{stroke:#655bd1;stroke-width:5;fill:none;marker-end:url(#m)}</style>
    <marker id="m" markerWidth="12" markerHeight="12" refX="10" refY="6" orient="auto"><path d="M0 0L12 6L0 12z" fill="#655bd1"/></marker>
  </defs>
  <rect width="1200" height="620" rx="28" fill="#faf9ff"/>
  <text x="55" y="62" class="h">支付宝公域三展位与预算链路</text>
  <g transform="translate(65 115)">
    <rect width="300" height="220" rx="20" fill="#efedff" stroke="#c7c1ff"/>
    <rect x="34" y="32" width="232" height="44" rx="10" fill="#655bd1"/><text x="150" y="61" text-anchor="middle" fill="white" class="t">首页腰封</text>
    <text x="150" y="116" text-anchor="middle" class="b">大面积营销入口</text><text x="150" y="151" text-anchor="middle" class="s">供给内容与活动承接</text><text x="150" y="184" text-anchor="middle" class="s">主站预算制联合执行</text>
  </g>
  <g transform="translate(450 115)">
    <rect width="300" height="220" rx="20" fill="#eaf8f2" stroke="#9bd8c1"/>
    <rect x="34" y="32" width="232" height="44" rx="10" fill="#2aa879"/><text x="150" y="61" text-anchor="middle" fill="white" class="t">宫格角标</text>
    <text x="150" y="116" text-anchor="middle" class="b">图标红点提醒</text><text x="150" y="151" text-anchor="middle" class="s">增强业务入口可见度</text><text x="150" y="184" text-anchor="middle" class="s">与腰封共享月度预算</text>
  </g>
  <g transform="translate(835 115)">
    <rect width="300" height="220" rx="20" fill="#fff1e9" stroke="#f0b18e"/>
    <rect x="34" y="32" width="232" height="44" rx="10" fill="#e9804f"/><text x="150" y="61" text-anchor="middle" fill="white" class="t">“我的”Tab 红点</text>
    <text x="150" y="116" text-anchor="middle" class="b">资产页触达入口</text><text x="150" y="151" text-anchor="middle" class="s">覆盖多类数金业务</text><text x="150" y="184" text-anchor="middle" class="s">参与主站综合排序</text>
  </g>
  <g transform="translate(110 430)">
    <rect width="220" height="82" rx="16" fill="#262835"/><text x="110" y="50" text-anchor="middle" fill="white" class="t">供给生产</text>
    <path d="M235 41H350" class="a"/>
    <rect x="370" width="300" height="82" rx="16" fill="#655bd1"/><text x="520" y="34" text-anchor="middle" fill="white" class="t">预算 / 召回控制</text><text x="520" y="61" text-anchor="middle" fill="white" class="s">本文核心：数金算法优化</text>
    <path d="M680 41H795" class="a"/>
    <rect x="815" width="220" height="82" rx="16" fill="#262835"/><text x="925" y="34" text-anchor="middle" fill="white" class="t">主站精排</text><text x="925" y="61" text-anchor="middle" fill="white" class="s">CTR + CVR</text>
  </g>
</svg>
