<svg xmlns="http://www.w3.org/2000/svg" width="1200" height="720" viewBox="0 0 1200 720">
  <defs>
    <style>text{font-family:-apple-system,BlinkMacSystemFont,"PingFang SC","Microsoft YaHei",sans-serif;fill:#242631}.h{font-size:32px;font-weight:700}.t{font-size:23px;font-weight:700}.b{font-size:17px}.s{font-size:15px;fill:#666978}.w{fill:#fff}.tw{font-size:23px;font-weight:700;fill:#fff}.bw{font-size:17px;fill:#fff}.a{stroke:#655bd1;stroke-width:5;fill:none;marker-end:url(#arrow)}</style>
    <marker id="arrow" markerWidth="12" markerHeight="12" refX="10" refY="6" orient="auto"><path d="M0 0L12 6L0 12z" fill="#655bd1"/></marker>
  </defs>
  <rect width="1200" height="720" rx="28" fill="#faf9ff"/>
  <text x="55" y="62" class="h">像自动驾驶一样组织流量分配系统</text>
  <g transform="translate(55 120)">
    <rect width="315" height="390" rx="22" fill="#efedff" stroke="#c7c1ff"/>
    <rect width="315" height="76" rx="22" fill="#655bd1"/><text x="157" y="48" text-anchor="middle" class="t" style="fill:#fff">感知</text>
    <text x="157" y="118" text-anchor="middle" class="b">回答“环境现在怎样”</text>
    <rect x="28" y="150" width="259" height="72" rx="14" class="w"/><text x="157" y="180" text-anchor="middle" class="b">当前状态估计</text><text x="157" y="205" text-anchor="middle" class="s">到达、容量、价值、竞争</text>
    <rect x="28" y="242" width="259" height="72" rx="14" class="w"/><text x="157" y="272" text-anchor="middle" class="b">未来轨迹预测</text><text x="157" y="297" text-anchor="middle" class="s">趋势、周期、事件、不确定性</text>
    <text x="157" y="356" text-anchor="middle" class="s">输出：状态与响应曲线</text>
  </g>
  <path d="M380 315H435" class="a"/>
  <g transform="translate(445 120)">
    <rect width="315" height="390" rx="22" fill="#eaf8f2" stroke="#9bd8c1"/>
    <rect width="315" height="76" rx="22" fill="#2aa879"/><text x="157" y="48" text-anchor="middle" class="t" style="fill:#fff">运筹</text>
    <text x="157" y="118" text-anchor="middle" class="b">回答“资源应该怎样分”</text>
    <rect x="28" y="150" width="259" height="72" rx="14" class="w"/><text x="157" y="180" text-anchor="middle" class="b">全局目标</text><text x="157" y="205" text-anchor="middle" class="s">价值、风险与稳定性的权衡</text>
    <rect x="28" y="242" width="259" height="72" rx="14" class="w"/><text x="157" y="272" text-anchor="middle" class="b">约束求解</text><text x="157" y="297" text-anchor="middle" class="s">总量、上下界、平滑与公平</text>
    <text x="157" y="356" text-anchor="middle" class="s">输出：目标轨迹与安全边界</text>
  </g>
  <path d="M770 315H825" class="a"/>
  <g transform="translate(835 120)">
    <rect width="310" height="390" rx="22" fill="#fff1e9" stroke="#f0b18e"/>
    <rect width="310" height="76" rx="22" fill="#e9804f"/><text x="155" y="48" text-anchor="middle" class="t" style="fill:#fff">控制</text>
    <text x="155" y="118" text-anchor="middle" class="b">回答“计划怎样被执行”</text>
    <rect x="28" y="150" width="254" height="72" rx="14" class="w"/><text x="155" y="180" text-anchor="middle" class="b">反馈纠偏</text><text x="155" y="205" text-anchor="middle" class="s">跟踪误差、扰动与执行偏差</text>
    <rect x="28" y="242" width="254" height="72" rx="14" class="w"/><text x="155" y="272" text-anchor="middle" class="b">保护与降级</text><text x="155" y="297" text-anchor="middle" class="s">限幅、死区、回退与人工接管</text>
    <text x="155" y="356" text-anchor="middle" class="s">输出：在线动作与真实反馈</text>
  </g>
  <path d="M990 525C990 630 210 630 210 525" class="a"/>
  <rect x="335" y="618" width="530" height="48" rx="14" fill="#262835"/><text x="600" y="649" text-anchor="middle" class="b" style="fill:#fff">真实反馈重新进入感知层，闭环持续滚动</text>
</svg>
