<svg xmlns="http://www.w3.org/2000/svg" width="1200" height="720" viewBox="0 0 1200 720">
  <defs><style>text{font-family:-apple-system,BlinkMacSystemFont,"PingFang SC","Microsoft YaHei",sans-serif;fill:#252633}.h{font-size:31px;font-weight:700}.t{font-size:21px;font-weight:700}.b{font-size:17px}.s{font-size:15px;fill:#686a77}.a{stroke:#655bd1;stroke-width:5;fill:none;marker-end:url(#m)}</style><marker id="m" markerWidth="12" markerHeight="12" refX="10" refY="6" orient="auto"><path d="M0 0L12 6L0 12z" fill="#655bd1"/></marker></defs>
  <rect width="1200" height="720" rx="28" fill="#faf9ff"/><text x="55" y="62" class="h">从业务目标引导转向用户心智运营</text>
  <g transform="translate(55 120)">
    <g class="t" text-anchor="middle"><rect width="190" height="100" rx="16" fill="#efedff"/><text x="95" y="43">小白</text><text x="95" y="72" class="s">探索浏览 / 兴趣激发</text><rect x="225" width="190" height="100" rx="16" fill="#eaf8f2"/><text x="320" y="43">调研</text><text x="320" y="72" class="s">定向浏览 / 信息供应</text><rect x="450" width="190" height="100" rx="16" fill="#fff1d7"/><text x="545" y="43">决策</text><text x="545" y="72" class="s">策略形成 / 决策依据</text><rect x="675" width="190" height="100" rx="16" fill="#fff1e9"/><text x="770" y="43">交易</text><text x="770" y="72" class="s">交易服务 / 发生购买</text><rect x="900" width="190" height="100" rx="16" fill="#f1eef5"/><text x="995" y="43">管理</text><text x="995" y="72" class="s">交互反馈 / 资产配置</text></g>
    <path d="M195 50H215" class="a"/><path d="M420 50H440" class="a"/><path d="M645 50H665" class="a"/><path d="M870 50H890" class="a"/>
  </g>
  <g transform="translate(115 300)">
    <text x="0" y="34" class="b">无理财心智</text><path d="M118 28H220" class="a"/><rect x="230" y="0" width="160" height="60" rx="14" fill="#655bd1"/><text x="310" y="37" text-anchor="middle" fill="white" class="b">心智阶段一</text><path d="M400 15H495" class="a"/><path d="M400 45H495" class="a"/><rect x="505" y="-20" width="160" height="60" rx="14" fill="#2aa879"/><text x="585" y="17" text-anchor="middle" fill="white" class="b">心智阶段二</text><rect x="505" y="52" width="160" height="60" rx="14" fill="#2aa879"/><text x="585" y="89" text-anchor="middle" fill="white" class="b">心智阶段三</text><path d="M675 82H770" class="a"/><rect x="780" y="52" width="160" height="60" rx="14" fill="#e9804f"/><text x="860" y="89" text-anchor="middle" fill="white" class="b">心智阶段四</text><path d="M675 10L850 10L850 42" class="a"/>
    <text x="785" y="145" class="b">稳定投资者（财富）</text>
  </g>
  <g transform="translate(125 500)"><rect width="255" height="92" rx="16" fill="#262835"/><text x="127" y="39" text-anchor="middle" fill="white" class="t">STEP 1</text><text x="127" y="68" text-anchor="middle" fill="white" class="b">生产行为线索</text><path d="M265 46H345" class="a"/><rect x="355" width="255" height="92" rx="16" fill="#262835"/><text x="482" y="39" text-anchor="middle" fill="white" class="t">STEP 2</text><text x="482" y="68" text-anchor="middle" fill="white" class="b">定义心智地图</text><path d="M620 46H700" class="a"/><rect x="710" width="365" height="92" rx="16" fill="#262835"/><text x="892" y="39" text-anchor="middle" fill="white" class="t">STEP 3</text><text x="892" y="68" text-anchor="middle" fill="white" class="b">阶段、目标、策略与供给匹配</text></g>
  <text x="600" y="655" text-anchor="middle" class="b">行为线索来源：SPM 曝点、账单、供给 reaction 与搜索行为；已提取 2000+ 关键线索</text>
</svg>
